# xmcd
#
# Track frame offsets:
#	150
#	12105
#	27504
#	43934
#	58634
#	73632
#	90561
#	104344
#	116240
#	130136
#	146375
#
# Disc length: 2132 seconds
#
# Revision: 0
# Processed by: cddbd v1.5.1PL0 Copyright (c) Steve Scherf et al.
# Submitted via: EasyCDDAExtractor 4.5.0.1
#
DISCID=9808520b
DTITLE=Roy Orbison - Sings Vol. 5 CD2  (1965-1973 MGM LPs)
DYEAR=2004
DGENRE=blues
TTITLE0=I Wanna Live
TTITLE1=You Don't Know Me
TTITLE2=California Sunshine Girl
TTITLE3=Words
TTITLE4=Blue Rain (Coming Down)
TTITLE5=Drift Away
TTITLE6=You Lay So Easy On My Mind
TTITLE7=The World You Live In
TTITLE8=Sweet Caroline
TTITLE9=I've Been Loving You To Long
TTITLE10=The Morning After
EXTD=MGM SE 4934 LP "Milestones" ©1974
EXTT0=LP Milestones
EXTT1=LP Milestones
EXTT2=LP Milestones
EXTT3=LP Milestones
EXTT4=LP Milestones
EXTT5=LP Milestones
EXTT6=LP Milestones
EXTT7=LP Milestones
EXTT8=LP Milestones
EXTT9=LP Milestones
EXTT10=LP Milestones
PLAYORDER=
